<svg width="32" height="32" viewBox="0 0 32 32" fill="none" xmlns="http://www.w3.org/2000/svg">
<path d="M10.6666 24.0001H21.3333V21.3334H10.6666V24.0001ZM10.6666 18.6667H21.3333V16.0001H10.6666V18.6667ZM7.99992 29.3334C7.26659 29.3334 6.63903 29.0725 6.11725 28.5507C5.59459 28.0281 5.33325 27.4001 5.33325 26.6667V5.33341C5.33325 4.60008 5.59459 3.97208 6.11725 3.44941C6.63903 2.92764 7.26659 2.66675 7.99992 2.66675H18.6666L26.6666 10.6667V26.6667C26.6666 27.4001 26.4057 28.0281 25.8839 28.5507C25.3613 29.0725 24.7333 29.3334 23.9999 29.3334H7.99992ZM17.3333 12.0001V5.33341H7.99992V26.6667H23.9999V12.0001H17.3333ZM7.99992 5.33341V12.0001V5.33341V26.6667V5.33341Z" fill="white"/>
</svg>
