<svg width="27" height="24" viewBox="0 0 27 24" fill="none" xmlns="http://www.w3.org/2000/svg">
<path d="M3.36533 4.33333C3.36533 4.06812 3.47069 3.81376 3.65823 3.62623C3.84576 3.43869 4.10012 3.33333 4.36533 3.33333H22.3067C22.5719 3.33333 22.8262 3.43869 23.0138 3.62623C23.2013 3.81376 23.3067 4.06812 23.3067 4.33333V9C23.3067 9.26522 23.2013 9.51957 23.0138 9.70711C22.8262 9.89464 22.5719 10 22.3067 10H4.36533C4.10012 10 3.84576 9.89464 3.65823 9.70711C3.47069 9.51957 3.36533 9.26522 3.36533 9V4.33333ZM5.36533 5.33333V8H21.3067V5.33333H5.36533ZM16.3067 11.972C16.0415 11.972 15.7871 12.0774 15.5996 12.2649C15.412 12.4524 15.3067 12.7068 15.3067 12.972V18.972C15.3067 19.524 15.7533 19.972 16.3067 19.972H22.3067C22.5719 19.972 22.8262 19.8666 23.0138 19.6791C23.2013 19.4916 23.3067 19.2372 23.3067 18.972V12.972C23.3067 12.7068 23.2013 12.4524 23.0138 12.2649C22.8262 12.0774 22.5719 11.972 22.3067 11.972H16.3067ZM17.3067 17.972V13.972H21.3067V17.972H17.3067ZM3.36533 13.6667C3.36533 13.4015 3.47069 13.1471 3.65823 12.9596C3.84576 12.772 4.10012 12.6667 4.36533 12.6667H12.3333C12.5986 12.6667 12.8529 12.772 13.0404 12.9596C13.228 13.1471 13.3333 13.4015 13.3333 13.6667C13.3333 13.9319 13.228 14.1862 13.0404 14.3738C12.8529 14.5613 12.5986 14.6667 12.3333 14.6667H4.36533C4.10012 14.6667 3.84576 14.5613 3.65823 14.3738C3.47069 14.1862 3.36533 13.9319 3.36533 13.6667V13.6667ZM4.36533 17.3333C4.10012 17.3333 3.84576 17.4387 3.65823 17.6262C3.47069 17.8138 3.36533 18.0681 3.36533 18.3333C3.36533 18.5986 3.47069 18.8529 3.65823 19.0404C3.84576 19.228 4.10012 19.3333 4.36533 19.3333H12.3333C12.5986 19.3333 12.8529 19.228 13.0404 19.0404C13.228 18.8529 13.3333 18.5986 13.3333 18.3333C13.3333 18.0681 13.228 17.8138 13.0404 17.6262C12.8529 17.4387 12.5986 17.3333 12.3333 17.3333H4.36533ZM0 3.66667C0 2.69421 0.386309 1.76158 1.07394 1.07394C1.76158 0.386309 2.69421 0 3.66667 0H23C23.9725 0 24.9051 0.386309 25.5927 1.07394C26.2804 1.76158 26.6667 2.69421 26.6667 3.66667V20.3333C26.6667 21.3058 26.2804 22.2384 25.5927 22.9261C24.9051 23.6137 23.9725 24 23 24H3.66667C2.69421 24 1.76158 23.6137 1.07394 22.9261C0.386309 22.2384 0 21.3058 0 20.3333V3.66667ZM3.66667 2C2.74667 2 2 2.74667 2 3.66667V20.3333C2 21.2533 2.74667 22 3.66667 22H23C23.92 22 24.6667 21.2533 24.6667 20.3333V3.66667C24.6667 2.74667 23.92 2 23 2H3.66667Z" fill="white"/>
</svg>
