<svg width="16" height="11" viewBox="0 0 16 11" fill="none" xmlns="http://www.w3.org/2000/svg">
<path d="M7.5749 7.86872C8.24574 7.42308 8.75529 6.77331 9.02814 6.01557C9.30098 5.25783 9.32264 4.43238 9.08989 3.66137C8.85714 2.89037 8.38235 2.21478 7.7358 1.73459C7.08924 1.2544 6.30527 0.995117 5.4999 0.995117C4.69453 0.995117 3.91056 1.2544 3.264 1.73459C2.61745 2.21478 2.14266 2.89037 1.90991 3.66137C1.67716 4.43238 1.69882 5.25783 1.97166 6.01557C2.24451 6.77331 2.75406 7.42308 3.4249 7.86872C2.28051 8.28954 1.29245 9.05076 0.59365 10.05C0.548104 10.1027 0.514096 10.1645 0.49381 10.2311C0.473523 10.2978 0.467406 10.368 0.475851 10.4372C0.484296 10.5064 0.507117 10.5731 0.542848 10.6329C0.57858 10.6928 0.626432 10.7445 0.683334 10.7848C0.740235 10.8251 0.804928 10.853 0.87326 10.8668C0.941591 10.8806 1.01205 10.8799 1.08012 10.8649C1.14818 10.8498 1.21235 10.8207 1.26849 10.7794C1.32464 10.7381 1.37153 10.6855 1.40615 10.625C1.86819 9.96857 2.4813 9.4329 3.19378 9.06313C3.90625 8.69336 4.69719 8.50034 5.4999 8.50034C6.30261 8.50034 7.09355 8.69336 7.80602 9.06313C8.5185 9.4329 9.13161 9.96857 9.59365 10.625C9.62827 10.6855 9.67516 10.7381 9.73131 10.7794C9.78745 10.8207 9.85162 10.8498 9.91968 10.8649C9.98775 10.8799 10.0582 10.8806 10.1265 10.8668C10.1949 10.853 10.2596 10.8251 10.3165 10.7848C10.3734 10.7445 10.4212 10.6928 10.457 10.6329C10.4927 10.5731 10.5155 10.5064 10.5239 10.4372C10.5324 10.368 10.5263 10.2978 10.506 10.2311C10.4857 10.1645 10.4517 10.1027 10.4061 10.05C9.70735 9.05076 8.71929 8.28954 7.5749 7.86872V7.86872ZM2.7499 4.74997C2.7499 4.20607 2.91118 3.67438 3.21336 3.22215C3.51553 2.76991 3.94502 2.41744 4.44752 2.2093C4.95002 2.00116 5.50295 1.9467 6.0364 2.05281C6.56985 2.15892 7.05985 2.42083 7.44444 2.80542C7.82904 3.19002 8.09095 3.68002 8.19706 4.21347C8.30317 4.74692 8.24871 5.29985 8.04057 5.80235C7.83243 6.30484 7.47995 6.73433 7.02772 7.03651C6.57548 7.33868 6.0438 7.49997 5.4999 7.49997C4.77056 7.49997 4.07108 7.21024 3.55536 6.69451C3.03963 6.17879 2.7499 5.47931 2.7499 4.74997ZM15.3812 10.7437C15.328 10.782 15.2677 10.8093 15.2039 10.824C15.1401 10.8388 15.074 10.8407 15.0094 10.8297C14.9448 10.8186 14.8831 10.7948 14.8278 10.7597C14.7725 10.7245 14.7248 10.6787 14.6874 10.625C14.225 9.96888 13.6119 9.43341 12.8995 9.06362C12.1871 8.69383 11.3963 8.50053 10.5936 8.49997C10.461 8.49997 10.3339 8.44729 10.2401 8.35352C10.1463 8.25975 10.0936 8.13257 10.0936 7.99997C10.0936 7.86736 10.1463 7.74018 10.2401 7.64641C10.3339 7.55264 10.461 7.49997 10.5936 7.49997C11.323 7.49997 12.0225 7.21024 12.5382 6.69451C13.0539 6.17879 13.3436 5.47931 13.3436 4.74997C13.3436 4.02062 13.0539 3.32115 12.5382 2.80542C12.0225 2.2897 11.323 1.99997 10.5936 1.99997C10.3425 2.00164 10.0926 2.03524 9.8499 2.09997C9.7867 2.11809 9.72055 2.12358 9.65523 2.11611C9.58991 2.10863 9.5267 2.08835 9.46923 2.05642C9.41176 2.02449 9.36115 1.98154 9.32029 1.93003C9.27944 1.87852 9.24915 1.81945 9.23115 1.75622C9.19624 1.62862 9.21267 1.49242 9.27692 1.37678C9.34116 1.26114 9.44812 1.17524 9.5749 1.13747C9.90716 1.04801 10.2496 1.00179 10.5936 0.999967C11.3999 0.997065 12.1854 1.25449 12.8336 1.73395C13.4817 2.21342 13.9578 2.8893 14.1909 3.66105C14.4241 4.43281 14.4018 5.25922 14.1276 6.01733C13.8533 6.77545 13.3416 7.42477 12.6686 7.86872C13.8138 8.29126 14.8034 9.05198 15.5062 10.05C15.5812 10.1587 15.6101 10.2926 15.5867 10.4226C15.5633 10.5526 15.4894 10.668 15.3812 10.7437V10.7437Z" fill="white"/>
</svg>
