<svg width="14" height="14" viewBox="0 0 14 14" fill="none" xmlns="http://www.w3.org/2000/svg">
<path d="M3.66668 6.33337V7.66671H10.3333V6.33337H3.66668ZM7.00001 0.333374C3.32001 0.333374 0.333344 3.32004 0.333344 7.00004C0.333344 10.68 3.32001 13.6667 7.00001 13.6667C10.68 13.6667 13.6667 10.68 13.6667 7.00004C13.6667 3.32004 10.68 0.333374 7.00001 0.333374ZM7.00001 12.3334C4.06001 12.3334 1.66668 9.94004 1.66668 7.00004C1.66668 4.06004 4.06001 1.66671 7.00001 1.66671C9.94001 1.66671 12.3333 4.06004 12.3333 7.00004C12.3333 9.94004 9.94001 12.3334 7.00001 12.3334Z" fill="black"/>
</svg>
